<svg xmlns="http://www.w3.org/2000/svg" width="1200" height="630" viewBox="0 0 1200 630" role="img" aria-labelledby="title desc">
  <title id="title">Retrofly</title>
  <desc id="desc">Social preview image for the Retrofly retrospective workspace.</desc>
  <defs>
    <linearGradient id="bg" x1="0" y1="0" x2="1" y2="1">
      <stop offset="0" stop-color="#fff7ed"/>
      <stop offset="0.5" stop-color="#eff6ff"/>
      <stop offset="1" stop-color="#ecfdf5"/>
    </linearGradient>
    <linearGradient id="accent" x1="0" y1="0" x2="1" y2="1">
      <stop offset="0" stop-color="#f59e0b"/>
      <stop offset="0.45" stop-color="#3b82f6"/>
      <stop offset="1" stop-color="#10b981"/>
    </linearGradient>
  </defs>
  <rect width="1200" height="630" fill="url(#bg)"/>
  <rect x="72" y="72" width="1056" height="486" rx="36" fill="#ffffff" stroke="#111827" stroke-opacity="0.1"/>
  <g transform="translate(122 122)">
    <circle cx="34" cy="34" r="34" fill="url(#accent)"/>
    <path d="M34 49s-18-10.8-18-24a10.5 10.5 0 0 1 18-7.4A10.5 10.5 0 0 1 52 25c0 13.2-18 24-18 24z" fill="#fff"/>
  </g>
  <text x="122" y="270" fill="#111827" font-family="Inter, ui-sans-serif, system-ui, -apple-system, BlinkMacSystemFont, Segoe UI, sans-serif" font-size="92" font-weight="800">Retrofly</text>
  <text x="126" y="342" fill="#374151" font-family="Inter, ui-sans-serif, system-ui, -apple-system, BlinkMacSystemFont, Segoe UI, sans-serif" font-size="36" font-weight="500">Async retros, AI summaries, clear action items.</text>
  <g transform="translate(126 414)" fill="none" stroke="#111827" stroke-opacity="0.18" stroke-width="3">
    <rect width="220" height="82" rx="18" fill="#fffbeb"/>
    <rect x="250" width="220" height="82" rx="18" fill="#eff6ff"/>
    <rect x="500" width="220" height="82" rx="18" fill="#ecfdf5"/>
  </g>
  <g transform="translate(152 446)" fill="#111827" font-family="Inter, ui-sans-serif, system-ui, sans-serif" font-size="20" font-weight="700">
    <text>Collect feedback</text>
    <text x="250">Find themes</text>
    <text x="500">Track actions</text>
  </g>
</svg>
