<svg width="87" height="26" viewBox="0 0 87 26" fill="none" xmlns="http://www.w3.org/2000/svg">
<g clip-path="url(#clip0_1_961)">
<path d="M53.9619 20.3122C48.9122 23.9976 41.593 25.9638 35.2913 25.9638C26.4554 25.9638 18.5007 22.7279 12.4827 17.346C12.0099 16.9228 12.4335 16.346 13.0009 16.6756C19.4955 20.4171 27.5258 22.668 35.8209 22.668C41.4153 22.668 47.5694 21.5219 53.2281 19.1437C54.083 18.7841 54.7979 19.698 53.9619 20.3122Z" fill="white"/>
<path d="M56.0612 17.934C55.4182 17.1175 51.7946 17.5482 50.1681 17.7392C49.6726 17.7992 49.5969 17.3722 50.0432 17.0651C52.9293 15.0539 57.665 15.6344 58.2173 16.3085C58.7695 16.9864 58.0736 21.6867 55.3615 23.9302C54.9454 24.2747 54.5482 24.0912 54.7336 23.6343C55.3426 22.1287 56.7081 18.7542 56.0612 17.934Z" fill="white"/>
<path d="M50.2809 2.8667V0.911672C50.2809 0.615796 50.5079 0.417297 50.7802 0.417297H59.62C59.9037 0.417297 60.1306 0.619542 60.1306 0.911672V2.5858C60.1268 2.8667 59.8885 3.23373 59.4649 3.81425L54.8842 10.2898C56.5864 10.2486 58.3831 10.4995 59.9264 11.361C60.2744 11.5557 60.3689 11.8403 60.3954 12.1212V14.2074C60.3954 14.492 60.0777 14.8253 59.7448 14.653C57.0252 13.2411 53.4128 13.0875 50.4057 14.668C50.0993 14.8328 49.7778 14.5032 49.7778 14.2186V12.2373C49.7778 11.919 49.7816 11.3759 50.1031 10.8928L55.41 3.35733H50.7916C50.5079 3.35733 50.2809 3.15883 50.2809 2.8667Z" fill="white"/>
<path d="M18.0355 15.0651H15.3462C15.089 15.0464 14.8847 14.8554 14.8658 14.6119V0.94546C14.8658 0.672056 15.0965 0.454829 15.384 0.454829H17.8918C18.1528 0.466057 18.3608 0.664563 18.3798 0.91175V2.69824H18.4289C19.0833 0.971674 20.3126 0.166443 21.9694 0.166443C23.6526 0.166443 24.7041 0.971674 25.4606 2.69824C26.1112 0.971674 27.5902 0.166443 29.1751 0.166443C30.3023 0.166443 31.5354 0.62711 32.2881 1.6608C33.1392 2.8106 32.9652 4.48099 32.9652 5.94539L32.9614 14.5707C32.9614 14.8441 32.7307 15.0651 32.4432 15.0651H29.7576C29.489 15.0464 29.2734 14.8329 29.2734 14.5707V7.32739C29.2734 6.75062 29.3264 5.31244 29.1978 4.76563C28.9973 3.84804 28.3959 3.58961 27.6167 3.58961C26.9661 3.58961 26.2852 4.02032 26.0091 4.70945C25.733 5.39858 25.7595 6.55212 25.7595 7.32739V14.5707C25.7595 14.8441 25.5287 15.0651 25.2413 15.0651H22.5557C22.2833 15.0464 22.0715 14.8329 22.0715 14.5707L22.0677 7.32739C22.0677 5.80307 22.3211 3.55965 20.411 3.55965C18.4781 3.55965 18.5538 5.74688 18.5538 7.32739V14.5707C18.5538 14.8441 18.323 15.0651 18.0355 15.0651Z" fill="white"/>
<path d="M67.7419 0.166443C71.7324 0.166443 73.8923 3.55965 73.8923 7.8742C73.8923 12.0427 71.5055 15.3497 67.7419 15.3497C63.8232 15.3497 61.6898 11.9565 61.6898 7.72813C61.6898 3.47351 63.8496 0.166443 67.7419 0.166443ZM67.7646 2.95667C65.7825 2.95667 65.6577 5.63078 65.6577 7.29743C65.6577 8.96781 65.6312 12.5333 67.7419 12.5333C69.826 12.5333 69.9244 9.65694 69.9244 7.90416C69.9244 6.75062 69.8752 5.37236 69.5234 4.27874C69.2208 3.32745 68.6194 2.95667 67.7646 2.95667Z" fill="white"/>
<path d="M79.0661 15.0651H76.3881C76.1195 15.0464 75.9039 14.8329 75.9039 14.5707L75.9001 0.900514C75.9228 0.649581 76.146 0.454829 76.4183 0.454829H78.911C79.1456 0.466057 79.3385 0.623366 79.3914 0.836846V2.9267H79.4406C80.1933 1.05782 81.2486 0.166443 83.1059 0.166443C84.3125 0.166443 85.4889 0.597149 86.2454 1.77691C86.9489 2.87052 86.9489 4.70945 86.9489 6.03153V14.6344C86.9187 14.8741 86.6955 15.0651 86.4307 15.0651H83.7338C83.4879 15.0464 83.2836 14.8666 83.2572 14.6344V7.21129C83.2572 5.71693 83.4312 3.52969 81.5739 3.52969C80.9196 3.52969 80.3181 3.96414 80.0193 4.62331C79.6411 5.4585 79.5919 6.28995 79.5919 7.21129V14.5707C79.5881 14.8441 79.3536 15.0651 79.0661 15.0651Z" fill="white"/>
<path d="M43.2343 8.53703V7.96026C41.2901 7.96026 39.2362 8.37224 39.2362 10.6419C39.2362 11.7917 39.8376 12.5707 40.8703 12.5707C41.6268 12.5707 42.3038 12.11 42.7313 11.361C43.2608 10.4396 43.2343 9.57446 43.2343 8.53703ZM45.9464 15.0276C45.7686 15.1849 45.5114 15.1961 45.3109 15.0912C44.4183 14.3572 44.2594 14.0163 43.7677 13.316C42.2925 14.8066 41.2485 15.2523 39.3345 15.2523C37.0726 15.2523 35.3099 13.8703 35.3099 11.1025C35.3099 8.94152 36.4939 7.46963 38.1771 6.75054C39.6371 6.11384 41.6759 6.00148 43.2343 5.82546V5.48089C43.2343 4.84794 43.2835 4.09889 42.909 3.55208C42.58 3.06145 41.9521 2.85921 41.3998 2.85921C40.3747 2.85921 39.4594 3.3798 39.2362 4.45843C39.1908 4.69813 39.013 4.93408 38.771 4.94532L36.161 4.66817C35.9416 4.61948 35.6995 4.44345 35.7601 4.11013C36.3615 0.979087 39.2173 0.0352783 41.7743 0.0352783C43.083 0.0352783 44.7927 0.379843 45.8254 1.3611C47.1341 2.57082 47.0093 4.18503 47.0093 5.94156V10.0913C47.0093 11.3385 47.5313 11.8853 48.023 12.5594C48.197 12.7991 48.2348 13.0875 48.0155 13.2673C47.467 13.7205 46.4911 14.5632 45.954 15.0351L45.9464 15.0276Z" fill="white"/>
<path d="M7.97738 8.53703V7.96026C6.03316 7.96026 3.97924 8.37224 3.97924 10.6419C3.97924 11.7917 4.58067 12.5707 5.6133 12.5707C6.3698 12.5707 7.04687 12.11 7.4743 11.361C8.00385 10.4396 7.97738 9.57446 7.97738 8.53703ZM10.6895 15.0276C10.5117 15.1849 10.2545 15.1961 10.054 15.0912C9.16131 14.3572 9.00244 14.0163 8.51071 13.316C7.03553 14.8066 5.99155 15.2523 4.07759 15.2523C1.81563 15.2523 0.0529785 13.8703 0.0529785 11.1025C0.0529785 8.94152 1.23691 7.46963 2.92014 6.75054C4.38019 6.11384 6.41897 6.00148 7.97738 5.82546V5.48089C7.97738 4.84794 8.02655 4.09889 7.65208 3.55208C7.323 3.06145 6.6951 2.85921 6.14285 2.85921C5.11779 2.85921 4.20241 3.3798 3.97924 4.45843C3.93385 4.69813 3.75607 4.93408 3.51399 4.94532L0.904048 4.66817C0.684661 4.61948 0.442578 4.44345 0.503099 4.11013C1.10452 0.979087 3.96033 0.0352783 6.51732 0.0352783C7.82608 0.0352783 9.53578 0.379843 10.5684 1.3611C11.8772 2.57082 11.7523 4.18503 11.7523 5.94156V10.0913C11.7523 11.3385 12.2743 11.8853 12.7661 12.5594C12.9401 12.7991 12.9779 13.0875 12.7585 13.2673C12.21 13.7205 11.2341 14.5632 10.697 15.0351L10.6895 15.0276Z" fill="white"/>
</g>
<defs>
<clipPath id="clip0_1_961">
<rect width="87" height="26" fill="white"/>
</clipPath>
</defs>
</svg>
