<svg width="198" height="22" viewBox="0 0 198 22" fill="none" xmlns="http://www.w3.org/2000/svg">
<g clip-path="url(#clip0_1_980)">
<path d="M84.3097 10.8581C84.3097 12.5613 84.9484 14.1936 86.1549 15.4C87.3613 16.6065 88.9936 17.2452 90.6968 17.2452C94.2452 17.2452 97.0839 14.4065 97.0839 10.8581C97.1549 9.15485 96.5161 7.45162 95.3097 6.24517C94.1032 5.03872 92.4 4.32904 90.6968 4.40001C87.1484 4.47098 84.3097 7.30968 84.3097 10.8581ZM86.7226 10.8581C86.7226 8.5871 88.3549 6.45807 90.7678 6.45807C93.1807 6.45807 94.8129 8.23227 94.8129 10.8581C94.8839 11.9936 94.4581 13.0581 93.6774 13.9097C92.8968 14.7613 91.8323 15.1871 90.7678 15.1871C88.3549 15.2581 86.7226 13.4129 86.7226 10.8581Z" fill="white"/>
<path d="M70.329 10.858C70.258 12.5613 70.8968 14.2645 72.1032 15.4709C73.3097 16.6774 75.0129 17.3161 76.7161 17.2451C78.6322 17.3161 80.4774 16.3935 81.6129 14.8322L81.6838 14.7613L79.9097 13.2709L79.8387 13.4129C79.2 14.6193 77.9935 15.329 76.6451 15.258C74.2322 15.258 72.6 13.3419 72.6 10.858C72.529 9.72256 72.9548 8.65804 73.6645 7.80643C74.4451 6.95482 75.5097 6.45804 76.6451 6.45804C77.9226 6.45804 79.129 7.16772 79.8387 8.23224L79.9097 8.30321L81.6838 6.88385L81.6129 6.81288C80.4064 5.32256 78.5613 4.47095 76.6451 4.47095C74.9419 4.47095 73.3097 5.10966 72.1742 6.31611C71.0387 7.52256 70.329 9.15482 70.329 10.858Z" fill="white"/>
<path d="M160.316 11.8516V16.9613H162.587V11.8516L167.058 4.75482H164.574L161.452 9.6516L158.471 4.75482H155.845L160.316 11.8516Z" fill="white"/>
<path d="M118.8 4.75482V16.9613H121.142V12.4193C121.284 12.4193 121.497 12.4903 121.71 12.4903C124.69 12.4903 126.748 11.2129 126.748 8.65805C126.748 6.24514 124.974 4.75482 121.639 4.75482H118.8ZM121.142 6.59998H121.71C123.626 6.59998 124.406 7.30966 124.406 8.58708C124.406 9.8645 123.555 10.5742 121.71 10.5742C121.497 10.5742 121.355 10.5742 121.142 10.5032V6.59998Z" fill="white"/>
<path d="M103.329 10.3613L107.161 17.3161L110.923 10.3613L112.413 16.9613H114.826L111.632 4.54193L107.232 12.7742L102.69 4.54193L99.6387 17.0323H101.91L103.329 10.3613Z" fill="white"/>
<path d="M40.6645 11.9935L32.5742 4.54193V17.0323H34.7742V9.79354L42.9355 17.3161V4.75483H40.6645V11.9935Z" fill="white"/>
<path d="M24.9097 4.75482V16.9613H27.2516V4.75482H24.9097Z" fill="white"/>
<path d="M21.929 16.9613L15.9678 4.47095L10.0065 16.9613H12.3484L13.5549 14.3355H18.2387L19.3742 16.9613H21.929ZM14.4065 12.4193L15.9678 8.87095L17.3871 12.4193H14.4065Z" fill="white"/>
<path d="M5.89032 10.5032C6.88387 10.0774 7.52258 9.01289 7.52258 7.94837C7.52258 5.81934 5.81935 4.75482 2.90968 4.75482H0V16.9613H3.47742C6.6 16.9613 8.30323 15.6839 8.30323 13.4129C8.23226 11.9935 7.23871 10.7871 5.89032 10.5032ZM3.33548 11.7806C4.96774 11.7806 5.89032 12.2064 5.89032 13.4839C5.89032 14.6193 5.03871 15.1161 3.33548 15.1161H2.34194V11.7806H3.33548ZM2.34194 9.93547V6.59998H2.76774C4.47097 6.59998 5.32258 7.02579 5.32258 8.30321C5.32258 9.58063 4.47097 9.93547 2.83871 9.93547H2.34194Z" fill="white"/>
<path d="M60.3936 17.0322H63.0903C63.0903 17.0322 61.0323 14.6903 60.6774 14.2645C60.9613 13.9097 62.7355 11.2129 62.7355 11.2129H60.5355L59.471 12.8451L57.5549 10.6451C59.1871 9.79353 60.1807 8.58708 60.1807 7.30966C60.1807 5.60643 58.6903 4.47095 56.7742 4.47095C54.6452 4.47095 53.2258 5.74837 53.2258 7.45159C53.2968 8.58708 53.7936 9.58063 54.5742 10.3613C53.2968 11.0709 52.1613 12.1355 52.1613 13.9097C52.1613 15.8258 53.7226 17.3161 55.9936 17.3161C57.271 17.3161 58.5484 16.8193 59.4 15.8258L60.3936 17.0322ZM55.3549 7.52256C55.3549 7.16772 55.4968 6.74191 55.7807 6.52901C56.0645 6.24514 56.4194 6.10321 56.7742 6.10321C57.1291 6.10321 57.4839 6.17417 57.7678 6.45804C58.0516 6.67095 58.1936 7.02579 58.1226 7.38062C58.1226 8.23224 57.271 8.87095 56.4194 9.29675C55.8516 8.87095 55.4258 8.23224 55.3549 7.52256ZM58.1226 14.4774C57.6968 15.0451 56.9871 15.4 56.2065 15.4C55.7097 15.4709 55.2839 15.258 54.9291 14.9742C54.5742 14.6193 54.3613 14.1935 54.3613 13.6968C54.4323 12.8451 54.9291 12.1355 55.6387 11.7097H55.7097L58.1226 14.4774Z" fill="white"/>
<path d="M150.806 11.9935L142.716 4.54193V16.9613H144.987V9.79354L153.077 17.3161V4.75483H150.806V11.9935Z" fill="white"/>
<path d="M139.736 16.9613L133.774 4.47095L127.813 16.9613H130.155L131.361 14.3355H136.045L137.181 16.9613H139.736ZM132.213 12.4193L133.774 8.87095L135.194 12.4193H132.213Z" fill="white"/>
<path d="M190.974 11.4258L188.987 2.62581L183.523 9.72258L190.974 11.4258ZM198 10.8581C198 16.8194 193.103 21.7161 187.142 21.7161C181.181 21.7161 176.284 16.8194 176.284 10.8581C176.284 4.89677 181.181 0 187.142 0C187.71 0 188.277 0.0709677 188.845 0.141935L187.923 1.34839H187.142C184.729 1.34839 182.458 2.27097 180.684 3.90323C178.981 5.60645 177.987 7.87742 177.987 10.2903C177.987 15.329 182.103 19.4452 187.142 19.4452C192.181 19.4452 196.297 15.329 196.297 10.2903C196.297 6.6 193.955 3.26452 190.477 1.9871L190.123 0.496774C194.806 1.77419 198 6.03226 198 10.8581Z" fill="white"/>
</g>
<defs>
<clipPath id="clip0_1_980">
<rect width="198" height="22" fill="white"/>
</clipPath>
</defs>
</svg>
