<svg xmlns="http://www.w3.org/2000/svg" width="1336" height="80" fill="none" viewBox="0 0 1336 80">
  <mask id="b" width="1336" height="80" x="0" y="0" maskUnits="userSpaceOnUse" style="mask-type:alpha">
    <path fill="url(#a)" d="M0 0h1336v80H0z" transform="matrix(1 0 0 -1 0 80)"/>
  </mask>
  <g mask="url(#b)">
    <path fill="#F7F4ED" d="M2.001 32.075a14.203 14.203 0 0 0-12.506-6.266c-7.349.36-13.285 6.432-13.49 13.79-.221 8.03 6.222 14.61 14.203 14.61 4.913 0 9.244-2.495 11.793-6.283l-11.62-7.596a.395.395 0 0 1 0-.656l11.62-7.596a14.123 14.123 0 0 1 2.415 7.92c0 2.937-.888 5.66-2.415 7.927l8.904 6.216a.397.397 0 0 0 .616-.33V26.187a.396.396 0 0 0-.616-.328l-8.904 6.216Zm25.989-.571c1.125-.493 2.363-.739 3.713-.739s2.588.246 3.714.739c1.125.493 2.057 1.16 2.793 1.996a9.141 9.141 0 0 1 1.712 2.91c.405 1.1.608 2.264.608 3.487 0 1.223-.203 2.385-.608 3.487a9.12 9.12 0 0 1-1.712 2.908c-.736.838-1.668 1.505-2.793 1.996-1.127.493-2.365.74-3.715.74-1.35 0-2.587-.247-3.712-.74-1.127-.493-2.059-1.158-2.795-1.996a9.055 9.055 0 0 1-1.706-2.908 10.117 10.117 0 0 1-.601-3.487c0-1.224.2-2.387.6-3.487a9.09 9.09 0 0 1 1.707-2.91c.736-.837 1.668-1.503 2.795-1.996Zm-1.829 5.878a7.742 7.742 0 0 0-.405 2.515c0 .882.135 1.722.405 2.52.27.8.65 1.505 1.14 2.117a5.24 5.24 0 0 0 1.88 1.46c.764.362 1.604.542 2.521.542.918 0 1.76-.18 2.522-.54a5.369 5.369 0 0 0 1.893-1.462 6.779 6.779 0 0 0 1.15-2.115 7.868 7.868 0 0 0 .406-2.522 7.853 7.853 0 0 0-.405-2.52 6.772 6.772 0 0 0-1.151-2.118 5.353 5.353 0 0 0-1.892-1.46c-.764-.361-1.605-.542-2.523-.542-.917 0-1.759.18-2.522.542a5.244 5.244 0 0 0-1.88 1.46 6.86 6.86 0 0 0-1.139 2.123Zm22.766-1.705c1.682 0 3.05.604 4.102 1.812 1.053 1.207 1.579 2.801 1.579 4.78 0 1.995-.53 3.604-1.59 4.827-1.062 1.225-2.433 1.836-4.114 1.836-.971 0-1.798-.253-2.48-.762-.684-.508-1.153-1.085-1.407-1.729h-.023v7.057h-2.823V35.987h2.8v2.276h.023c.232-.666.697-1.265 1.394-1.793.7-.529 1.545-.793 2.54-.793Zm-4.153 6.591c0 .59.074 1.141.22 1.658.138.499.356.97.643 1.394.28.414.653.739 1.116.978.462.238.986.358 1.573.358 1.126 0 1.998-.408 2.614-1.222.617-.814.927-1.87.927-3.164 0-1.265-.313-2.302-.938-3.112-.624-.811-1.492-1.216-2.603-1.216a3.27 3.27 0 0 0-1.55.364 3.096 3.096 0 0 0-1.122.971A4.664 4.664 0 0 0 45 40.654a5.742 5.742 0 0 0-.226 1.614Zm11.233-2.42c.087-.528.255-1.04.498-1.513.257-.5.59-.954.983-1.347.409-.413.929-.745 1.561-.996a5.652 5.652 0 0 1 2.095-.375c.787 0 1.483.096 2.088.286.605.192 1.098.447 1.48.769.384.324.704.721.944 1.169.246.456.418.93.514 1.418a8.18 8.18 0 0 1 .145 1.591v4.852c0 1.296.061 2.265.185 2.909h-2.799a15.805 15.805 0 0 1-.071-1.49v-.585h-.023c-.116.289-.265.56-.444.812a4.26 4.26 0 0 1-.724.763c-.3.254-.684.454-1.15.6a5.18 5.18 0 0 1-1.568.222c-1.335 0-2.385-.363-3.153-1.09-.767-.728-1.15-1.62-1.15-2.678 0-.34.04-.659.126-.953.085-.294.189-.554.313-.78a2.39 2.39 0 0 1 .508-.632c.196-.18.402-.344.62-.495.196-.135.442-.263.734-.382.249-.102.502-.196.758-.28.265-.08.532-.148.804-.202a21.461 21.461 0 0 1 1.463-.263c.297-.044.496-.073.596-.09.825-.126 1.41-.302 1.753-.523.344-.223.514-.593.514-1.11 0-.5-.216-.898-.648-1.192-.432-.293-1.021-.44-1.769-.44-.663 0-1.223.18-1.678.542-.454.361-.755.857-.902 1.484h-2.603Zm2.742 4.019a1.402 1.402 0 0 0-.613 1.203c0 .509.201.925.608 1.246.405.323.96.483 1.67.483.411.005.819-.07 1.204-.22.38-.155.727-.384 1.023-.675.313-.301.56-.722.74-1.263.182-.54.273-1.172.273-1.895v-1.312c-.146.398-.44.738-.88 1.019-.438.283-1.14.518-2.105.71-.864.167-1.503.401-1.92.704Zm9.693-12.684h2.754V48.61h-2.754V31.183Zm170.647 17.538a8.581 8.581 0 0 1-4.364-1.134 8.244 8.244 0 0 1-3.104-3.133 8.91 8.91 0 0 1-1.13-4.47 9.062 9.062 0 0 1 1.113-4.479 8.025 8.025 0 0 1 3.031-3.102 8.52 8.52 0 0 1 4.364-1.135 8.35 8.35 0 0 1 3.233.614 7.255 7.255 0 0 1 2.509 1.612 6.12 6.12 0 0 1 1.469 2.292l-3.096 1.492a4.176 4.176 0 0 0-1.538-2.042 4.252 4.252 0 0 0-2.577-.794 4.945 4.945 0 0 0-2.624.71 4.624 4.624 0 0 0-1.766 1.949 6.453 6.453 0 0 0-.611 2.883 6.41 6.41 0 0 0 .634 2.904 4.92 4.92 0 0 0 1.808 1.951 5.06 5.06 0 0 0 2.65.708 5.17 5.17 0 0 0 2.171-.453 3.955 3.955 0 0 0 1.629-1.295 3.377 3.377 0 0 0 .609-1.996v-.046h-4.5l-1.637-2.612h9.64v1.451c0 1.756-.377 3.245-1.13 4.471a7.231 7.231 0 0 1-2.944 2.747 8.47 8.47 0 0 1-3.839.907Zm12.432 0c-1.343 0-2.397-.317-3.165-.954-.77-.634-1.06-1.511-1.06-2.633 0-1.063.273-1.921.996-2.586.723-.665 1.838-1.142 3.302-1.385l3.414-.544v-.34a1.486 1.486 0 0 0-.565-1.181 2.241 2.241 0 0 0-1.492-.476 2.7 2.7 0 0 0-1.606.5 2.747 2.747 0 0 0-.995 1.316l-2.714-1.294a4.637 4.637 0 0 1 2.004-2.45 6.515 6.515 0 0 1 3.461-.908 6.319 6.319 0 0 1 2.736.567 4.35 4.35 0 0 1 1.876 1.596 4.13 4.13 0 0 1 .678 2.337v8.162h-3.162V47.29a4.819 4.819 0 0 1-1.628 1.09 5.862 5.862 0 0 1-2.08.341Zm-.822-3.7c-.014.345.137.675.407.887.318.223.699.335 1.087.319a2.71 2.71 0 0 0 2.012-.773c.52-.512.807-1.219.791-1.95v-.387l-2.803.5a2.291 2.291 0 0 0-1.132.476c-.247.243-.379.58-.362.928Zm8.346-8.963h3.166v1.52a2.845 2.845 0 0 1 1.357-1.338 4.617 4.617 0 0 1 2.101-.454 4.73 4.73 0 0 1 2.217.52c.634.294 1.17.767 1.539 1.364.874-1.256 2.147-1.884 3.821-1.884a4.606 4.606 0 0 1 2.352.59 4.207 4.207 0 0 1 1.628 1.656c.401.753.605 1.597.588 2.45v7.966h-3.393V41.21c0-.727-.194-1.302-.587-1.725-.393-.423-.912-.636-1.559-.636a2.05 2.05 0 0 0-1.59.636c-.37.42-.553.995-.553 1.725v7.238h-3.392V41.21c0-.727-.196-1.302-.589-1.725-.391-.423-.912-.636-1.559-.636a2.052 2.052 0 0 0-1.59.636c-.375.423-.565 1-.566 1.725v7.238h-3.391v-12.39Zm19.427 0h3.167v1.52a2.832 2.832 0 0 1 1.356-1.338 4.631 4.631 0 0 1 2.103-.454c.769-.01 1.53.169 2.214.52a3.58 3.58 0 0 1 1.544 1.364c.875-1.256 2.147-1.884 3.822-1.884a4.614 4.614 0 0 1 2.35.59 4.19 4.19 0 0 1 1.629 1.656c.403.753.605 1.597.588 2.45v7.966h-3.391V41.21c0-.727-.196-1.302-.589-1.725a1.981 1.981 0 0 0-1.559-.636 2.049 2.049 0 0 0-1.59.636c-.378.423-.567 1-.566 1.725v7.238h-3.392V41.21c0-.727-.195-1.302-.587-1.725a1.983 1.983 0 0 0-1.56-.636 2.044 2.044 0 0 0-1.589.636c-.379.423-.568 1-.566 1.725v7.238h-3.392l.008-12.39Zm23.689 12.663c-1.341 0-2.395-.317-3.165-.954-.769-.636-1.153-1.513-1.152-2.633a3.352 3.352 0 0 1 1.081-2.586c.739-.68 1.84-1.142 3.302-1.385l3.411-.544v-.34a1.49 1.49 0 0 0-.563-1.181 2.242 2.242 0 0 0-1.493-.476 2.7 2.7 0 0 0-1.605.5 2.73 2.73 0 0 0-.995 1.316l-2.713-1.294a4.606 4.606 0 0 1 2.017-2.45 6.507 6.507 0 0 1 3.458-.908 6.317 6.317 0 0 1 2.737.567 4.343 4.343 0 0 1 1.878 1.596 4.12 4.12 0 0 1 .676 2.337v8.162h-3.163V47.29a4.853 4.853 0 0 1-1.629 1.09 5.87 5.87 0 0 1-2.082.341Zm-.811-3.7c-.016.345.135.675.405.887.318.223.699.335 1.086.319a2.707 2.707 0 0 0 2.011-.773 2.654 2.654 0 0 0 .791-1.95v-.387l-2.802.5a2.31 2.31 0 0 0-1.132.476 1.217 1.217 0 0 0-.359.928Zm-96.336-5.03v4.572l9.86-5.71v6.849l-9.86 5.726V56l13.802-8.005v-15.99l-13.802 7.986Zm-9.875-5.709v11.42l3.956-2.278v-6.848l9.862-5.727v-4.571l-13.818 8.004Z"/>
    <path fill="#F7F4ED" d="m195.137 45.702 9.877 5.726V56l-13.819-8.004V32.004L205.014 24l3.941 2.278-13.818 8.004v11.42Zm23.695-13.698V47.98l-13.818 8.004v-4.556l-9.877-5.726 3.957-2.278 5.92 3.433 5.904-3.433v-2.276l3.956-2.296-9.86 5.71v-4.57l13.818-7.988Zm-13.834 12.559-3.942-2.278v-4.57l13.818-8.005 3.942 2.278-13.818 8.003v4.572Z" opacity=".7"/>
    <path fill="#F7F4ED" d="M432.412 32.686a3.375 3.375 0 1 1 0-6.751h15.19c5.282 0 9.565 4.282 9.565 9.564s-4.283 9.564-9.565 9.564h-11.815v5.627a3.375 3.375 0 1 1-6.751 0v-9.002a3.374 3.374 0 0 1 3.376-3.376h15.19a2.813 2.813 0 1 0 0-5.626h-15.19Zm21.571 13.422 2.194 2.195a3.373 3.373 0 0 1 0 4.773 3.373 3.373 0 0 1-4.773 0l-5.201-5.2h1.399a12.325 12.325 0 0 0 6.381-1.768Zm50.394 1.706c-3.955 0-6.428-2.42-6.428-6.657s2.473-6.66 6.428-6.66c3.954 0 6.426 2.421 6.426 6.658s-2.472 6.66-6.426 6.66Zm0-3.026c1.605 0 2.966-1.09 2.966-3.631 0-2.543-1.361-3.634-2.966-3.634-1.606 0-2.968 1.09-2.968 3.632 0 2.543 1.362 3.633 2.968 3.633Zm69.718-10.048h2.966l.371 1.453h.125c.741-1.09 1.73-1.695 3.09-1.695 1.558 0 2.941.798 3.585 2.058h.121c.619-1.188 2.276-2.058 3.956-2.058 2.844 0 4.821 1.937 4.821 5.083v7.99h-3.46v-7.505c0-1.816-.991-2.543-2.225-2.543-1.113 0-2.102.849-2.102 2.543v7.506h-3.46v-7.506c0-1.816-.99-2.543-2.226-2.543-1.112 0-2.1.849-2.1 2.543v7.506h-3.462V34.74Zm-34.477 12.832h-3.461V34.738h2.966l.37 1.455h.125c.741-1.09 1.852-1.453 3.09-1.453h1.607v3.267h-1.36c-2.101 0-3.337 1.212-3.337 3.15v6.415Zm-18.166-6.417c0-4.237 2.471-6.657 6.427-6.657 3.955 0 6.427 2.422 6.427 6.659 0 4.236-2.472 6.657-6.427 6.657-3.956 0-6.427-2.422-6.427-6.659Zm9.394 0c0-2.541-1.361-3.632-2.967-3.632-1.607 0-2.967 1.09-2.967 3.634 0 2.54 1.36 3.632 2.967 3.632 1.606 0 2.967-1.091 2.967-3.634Zm20.637 6.66c-3.955 0-6.426-2.422-6.426-6.658 0-4.237 2.471-6.66 6.426-6.66 3.956 0 6.428 2.421 6.428 6.658s-2.472 6.66-6.428 6.66Zm0-3.026c1.607 0 2.968-1.091 2.968-3.632 0-2.543-1.361-3.634-2.968-3.634-1.606 0-2.966 1.09-2.966 3.632 0 2.543 1.36 3.633 2.966 3.633Zm14.334 3.025c-3.955 0-6.426-2.42-6.426-6.657s2.471-6.66 6.426-6.66c3.956 0 6.428 2.421 6.428 6.658s-2.472 6.66-6.428 6.66Zm0-3.026c1.607 0 2.968-1.09 2.968-3.631 0-2.543-1.361-3.634-2.968-3.634-1.606 0-2.966 1.09-2.966 3.632 0 2.543 1.36 3.633 2.966 3.633Zm-77.873 2.784h-3.461V30.623h3.461v5.448h.124c.866-.967 1.853-1.573 3.338-1.573 2.841 0 4.82 1.937 4.82 5.204v7.87h-3.462v-7.384c0-1.696-.866-2.663-2.347-2.663-1.482 0-2.473 1.089-2.473 2.663v7.384Zm29.786 0c-2.72 0-4.079-1.332-4.079-3.752v-5.933h-2.102V34.74h2.103l.494-3.392h2.966v3.392h3.09v3.147h-3.09v5.326c0 .727.494 1.211 1.238 1.211h1.852v3.148h-2.472Zm-48.061-16.949h7.169c3.585 0 6.057 2.421 6.057 5.812 0 3.389-2.472 5.81-6.056 5.81h-3.462v5.327h-3.708V30.623Zm6.798 8.355c1.732 0 2.719-.97 2.719-2.543 0-1.575-.989-2.542-2.719-2.542h-3.09v5.084l3.09.001ZM732.381 26a8.75 8.75 0 0 1 7 14 8.75 8.75 0 0 1-12.25 12.25A8.75 8.75 0 0 1 714.881 40a8.706 8.706 0 0 1-1.75-5.25 8.75 8.75 0 0 1 14-7 8.712 8.712 0 0 1 5.25-1.75Zm-5.25 20.3a2.52 2.52 0 0 0 2.52-2.52v-7.56a2.52 2.52 0 0 0-5.04 0v7.56a2.52 2.52 0 0 0 2.52 2.52Zm57.607-8.094c1.409 0 2.154.989 2.154 2.86v7.304c0 .251.193.453.431.453h1.916a.435.435 0 0 0 .307-.133.46.46 0 0 0 .125-.32v-8.184c0-1.382-.397-2.56-1.15-3.402-.756-.846-1.816-1.292-3.067-1.292-1.505 0-2.769.594-3.868 1.817l-.041.045-.031-.05c-.726-1.185-1.866-1.812-3.288-1.812-1.406 0-2.553.552-3.412 1.64l-.08.102v-1.04a.462.462 0 0 0-.126-.319.42.42 0 0 0-.305-.132h-1.918a.42.42 0 0 0-.305.133.457.457 0 0 0-.126.319v12.173c0 .25.193.452.431.452h1.918a.43.43 0 0 0 .305-.133.464.464 0 0 0 .126-.32V41.14c0-1.122.437-1.806.802-2.186a2.44 2.44 0 0 1 1.735-.75c1.408 0 2.153.988 2.153 2.86v7.304c0 .25.193.452.431.452h1.918a.432.432 0 0 0 .305-.133.454.454 0 0 0 .125-.32V41.14c0-1.122.437-1.806.802-2.186a2.441 2.441 0 0 1 1.733-.748Zm26.455 3.737c0-1.81-.503-3.434-1.414-4.574-.983-1.229-2.408-1.877-4.119-1.877a5.553 5.553 0 0 0-4.269 1.961c-1.078 1.252-1.67 2.971-1.67 4.843 0 4.005 2.492 6.804 6.059 6.804 2.28 0 4.16-1.17 5.126-3.151a.465.465 0 0 0 .022-.373.435.435 0 0 0-.256-.26l-1.543-.612a.422.422 0 0 0-.543.236c-.48 1.074-1.498 1.699-2.803 1.699-1.88 0-3.181-1.412-3.398-3.684l-.005-.053h8.384a.443.443 0 0 0 .432-.452v-.507h-.003Zm-8.68-1.205.014-.06c.423-1.745 1.555-2.747 3.109-2.747 1.644 0 2.726 1.08 2.751 2.756v.048h-5.874v.003ZM769.74 48.21l-6.15-17.018a.434.434 0 0 0-.402-.293h-2.811a.434.434 0 0 0-.402.293l-6.15 17.018a.463.463 0 0 0 .046.416.432.432 0 0 0 .356.196h2.017a.433.433 0 0 0 .405-.296l1.102-3.094h7.998l1.117 3.097a.435.435 0 0 0 .403.293h2.067a.432.432 0 0 0 .355-.196.464.464 0 0 0 .049-.416Zm-11.023-5.49 3.005-8.443 3.05 8.442h-6.055Zm32.888-6.523v1.801c0 .25.192.453.432.453h2.126v9.919c0 .25.193.452.431.452h1.917a.44.44 0 0 0 .431-.453V36.198a.453.453 0 0 0-.124-.32.425.425 0 0 0-.307-.133h-4.477a.44.44 0 0 0-.429.453Zm2.512-4.846v2.085c0 .25.193.452.431.452h2.015a.42.42 0 0 0 .306-.133.452.452 0 0 0 .125-.32v-2.084a.454.454 0 0 0-.125-.319.42.42 0 0 0-.306-.133h-2.015a.443.443 0 0 0-.431.452Z"/>
    <g clip-path="url(#c)">
      <path fill="#F7F4ED" d="M960.688 37.098a7.97 7.97 0 0 0-.685-6.549 8.06 8.06 0 0 0-8.683-3.867A7.975 7.975 0 0 0 945.306 24a8.061 8.061 0 0 0-7.69 5.583 7.973 7.973 0 0 0-5.331 3.867 8.062 8.062 0 0 0 .992 9.454 7.962 7.962 0 0 0 .685 6.547 8.062 8.062 0 0 0 8.683 3.87 7.973 7.973 0 0 0 6.013 2.68 8.065 8.065 0 0 0 7.694-5.588 7.973 7.973 0 0 0 5.331-3.866 8.067 8.067 0 0 0-.993-9.45h-.002Zm-12.027 16.811a5.982 5.982 0 0 1-3.84-1.389c.049-.025.134-.072.189-.105l6.372-3.682a1.03 1.03 0 0 0 .524-.906v-8.984L954.6 40.4a.091.091 0 0 1 .051.073v7.44a6.003 6.003 0 0 1-5.99 5.997Zm-12.885-5.504a5.979 5.979 0 0 1-.715-4.018l.189.114 6.372 3.68c.324.189.724.189 1.047 0l7.779-4.493v3.11a.1.1 0 0 1-.038.084l-6.44 3.718a6.003 6.003 0 0 1-8.192-2.195h-.002Zm-1.677-13.909a5.98 5.98 0 0 1 3.122-2.629l-.003.22v7.361c-.002.375.198.722.523.906l7.779 4.491-2.694 1.555a.09.09 0 0 1-.09.008l-6.443-3.721a6.004 6.004 0 0 1-2.195-8.19h.001Zm22.127 5.149-7.78-4.491 2.693-1.554a.089.089 0 0 1 .091-.008l6.442 3.719a5.998 5.998 0 0 1-.926 10.822v-7.58a1.038 1.038 0 0 0-.52-.908Zm2.68-4.034-.189-.113-6.373-3.68a1.037 1.037 0 0 0-1.046 0l-7.78 4.493V33.2a.102.102 0 0 1 .039-.084l6.44-3.715a5.996 5.996 0 0 1 8.192 2.2 6 6 0 0 1 .717 4.01Zm-16.852 5.543L939.36 39.6a.094.094 0 0 1-.051-.075v-7.438a5.995 5.995 0 0 1 6-5.994 6 6 0 0 1 3.835 1.387 5.02 5.02 0 0 0-.19.107l-6.372 3.68a1.033 1.033 0 0 0-.524.906l-.004 8.98ZM943.517 38l3.465-2 3.466 2v4l-3.466 2-3.465-2v-4Zm37.545-8.587c4.96 0 8.538 4.013 8.538 9.768 0 5.757-3.578 9.77-8.538 9.77-4.958 0-8.536-4.013-8.536-9.77 0-5.755 3.578-9.768 8.536-9.768Zm13.892 17.795v6.205h-3.068V34.799h3.068v1.478c.843-1.029 2.121-1.742 3.859-1.742 3.757 0 5.907 3.273 5.907 7.208 0 3.934-2.15 7.208-5.907 7.208-1.738 0-3.016-.714-3.859-1.743Zm11.546-5.465c0-4.066 2.5-7.208 6.39-7.208 3.89 0 5.96 3.036 5.96 6.838v1.056h-9.41c.23 2.376 1.61 3.829 3.58 3.829 1.51 0 2.71-.792 3.12-2.218l2.63 1.029c-.95 2.429-3.07 3.882-5.75 3.882-3.84 0-6.52-2.932-6.52-7.208Zm14.65-6.944h3.06v1.478c.77-.923 1.97-1.742 3.71-1.742 2.81 0 4.5 2.006 4.5 4.99v9.134h-3.07v-8.21c0-1.716-.66-2.958-2.35-2.958-1.38 0-2.79 1.056-2.79 3.037v8.131h-3.06V34.8Zm23.96-5.096 6.95 18.956h-3.3l-1.58-4.33h-7.92l-1.56 4.33h-3.25l6.95-18.956h3.71Zm12.22 19.012h-3.28V29.76h3.28v18.956Zm-76.268-16.32c-3.091 0-5.264 2.668-5.264 6.786 0 4.12 2.173 6.786 5.264 6.786 3.093 0 5.266-2.666 5.266-6.786 0-4.118-2.173-6.786-5.266-6.786Zm13.815 9.77c0 2.562 1.432 4.013 3.323 4.013 2.22 0 3.43-1.795 3.43-4.435 0-2.64-1.21-4.436-3.43-4.436-1.891 0-3.323 1.426-3.323 4.039v.819Zm14.713-2.112h6.16c-.02-1.531-.94-2.851-2.88-2.851-1.59 0-2.82.976-3.28 2.851Zm30.74 1.32h5.78l-2.92-7.922-2.86 7.922Z"/>
    </g>
    <g clip-path="url(#d)">
      <path fill="#F7F4ED" d="m1214.74 43.96-8.91-13.863h-4.82v19.787h4.09V36.02l8.92 13.864h4.82V30.097h-4.1V43.96Zm7.49-10.05h6.65v15.974h4.26V33.91h6.64v-3.812h-17.55v3.812Zm34.52 4.095h-9.32v-7.877h-4.26v19.788h4.26v-8.098h9.32v8.098h4.26v-19.82h-4.26v7.91Zm13.71-4.095h5.23c2.08 0 3.19.755 3.19 2.205 0 1.45-1.11 2.206-3.19 2.206h-5.23v-4.412Zm12.67 2.236c0-3.75-2.74-6.018-7.25-6.018h-9.67v19.788h4.25v-7.752h4.73l4.25 7.752h4.7l-4.7-8.35c2.37-.914 3.69-2.804 3.69-5.42Zm13 10.124c-3.34 0-5.39-2.363-5.39-6.239 0-3.938 2.05-6.301 5.39-6.301 3.31 0 5.32 2.363 5.32 6.301 0 3.876-2.01 6.24-5.32 6.24Zm0-16.51c-5.71 0-9.77 4.253-9.77 10.271 0 5.956 4.03 10.21 9.77 10.21 5.67 0 9.7-4.254 9.7-10.21 0-6.018-4-10.271-9.7-10.271Zm23.16 9.128h-5.23v-4.979h5.23c2.08 0 3.18.851 3.18 2.49 0 1.638-1.07 2.489-3.18 2.489Zm.19-8.791h-9.68v19.787h4.26v-7.152h5.42c4.5 0 7.24-2.364 7.24-6.302 0-3.939-2.74-6.333-7.24-6.333Zm8.96 0 7.91 19.787h4.31l-7.91-19.787h-4.31ZM1185.06 42.07l2.71-6.963 2.71 6.963h-5.42Zm.44-11.973-7.91 19.819h4.42l1.6-4.16h8.26l1.61 4.16h4.41l-7.88-19.82h-4.51Z"/>
    </g>
  </g>
  <defs>
    <clipPath id="c">
      <path fill="#fff" d="M931.195 24h126.4v32h-126.4z"/>
    </clipPath>
    <clipPath id="d">
      <path fill="#fff" d="M1177.59 29.76h182.404v20.481H1177.59z"/>
    </clipPath>
    <linearGradient id="a" x1="44.01" x2="1305.3" y1="40" y2="40" gradientUnits="userSpaceOnUse">
      <stop stop-opacity="0"/>
      <stop offset=".15"/>
      <stop offset=".85"/>
      <stop offset="1" stop-opacity="0"/>
    </linearGradient>
  </defs>
</svg>
