<svg width="35" height="36" viewBox="0 0 35 36" fill="none" xmlns="http://www.w3.org/2000/svg">
<g clip-path="url(#clip0_1_972)">
<path fill-rule="evenodd" clip-rule="evenodd" d="M17.5 0.5C7.83125 0.5 0 8.33125 0 18C0 25.7438 5.00937 32.2844 11.9656 34.6031C12.8406 34.7563 13.1687 34.2313 13.1687 33.7719C13.1687 33.3563 13.1469 31.9781 13.1469 30.5125C8.75 31.3219 7.6125 29.4406 7.2625 28.4563C7.06562 27.9531 6.2125 26.4 5.46875 25.9844C4.85625 25.6563 3.98125 24.8469 5.44688 24.825C6.825 24.8031 7.80938 26.0938 8.1375 26.6188C9.7125 29.2656 12.2281 28.5219 13.2344 28.0625C13.3875 26.925 13.8469 26.1594 14.35 25.7219C10.4563 25.2844 6.3875 23.775 6.3875 17.0813C6.3875 15.1781 7.06563 13.6031 8.18125 12.3781C8.00625 11.9406 7.39375 10.1469 8.35625 7.74063C8.35625 7.74063 9.82187 7.28125 13.1687 9.53438C14.5688 9.14063 16.0563 8.94375 17.5438 8.94375C19.0313 8.94375 20.5188 9.14063 21.9188 9.53438C25.2656 7.25938 26.7313 7.74063 26.7313 7.74063C27.6938 10.1469 27.0813 11.9406 26.9062 12.3781C28.0219 13.6031 28.7 15.1563 28.7 17.0813C28.7 23.7969 24.6094 25.2844 20.7156 25.7219C21.35 26.2688 21.8969 27.3188 21.8969 28.9594C21.8969 31.3 21.875 33.1813 21.875 33.7719C21.875 34.2313 22.2031 34.7781 23.0781 34.6031C29.9906 32.2844 35 25.7219 35 18C35 8.33125 27.1688 0.5 17.5 0.5Z" fill="white"/>
</g>
<defs>
<clipPath id="clip0_1_972">
<rect width="35" height="35" fill="white" transform="translate(0 0.5)"/>
</clipPath>
</defs>
</svg>
