<svg width="104" height="36" viewBox="0 0 104 36" fill="none" xmlns="http://www.w3.org/2000/svg">
<path d="M44.2574 18.4617C44.2574 23.4587 40.4376 27.1409 35.75 27.1409C31.0624 27.1409 27.2426 23.4587 27.2426 18.4617C27.2426 13.4295 31.0624 9.78259 35.75 9.78259C40.4376 9.78259 44.2574 13.4295 44.2574 18.4617ZM40.5332 18.4617C40.5332 15.3391 38.3194 13.2026 35.75 13.2026C33.1806 13.2026 30.9668 15.3391 30.9668 18.4617C30.9668 21.553 33.1806 23.7209 35.75 23.7209C38.3194 23.7209 40.5332 21.5491 40.5332 18.4617Z" fill="white"/>
<path d="M62.6103 18.4617C62.6103 23.4587 58.7906 27.1409 54.1029 27.1409C49.4153 27.1409 45.5956 23.4587 45.5956 18.4617C45.5956 13.4335 49.4153 9.78259 54.1029 9.78259C58.7906 9.78259 62.6103 13.4295 62.6103 18.4617ZM58.8862 18.4617C58.8862 15.3391 56.6723 13.2026 54.1029 13.2026C51.5335 13.2026 49.3197 15.3391 49.3197 18.4617C49.3197 21.553 51.5335 23.7209 54.1029 23.7209C56.6723 23.7209 58.8862 21.5491 58.8862 18.4617Z" fill="white"/>
<path d="M80.1985 10.3069V25.8887C80.1985 32.2982 76.505 34.9161 72.1385 34.9161C68.0282 34.9161 65.5544 32.1026 64.6215 29.8017L67.8638 28.4204C68.4412 29.833 69.8559 31.5 72.1347 31.5C74.9297 31.5 76.6618 29.7352 76.6618 26.413V25.1648H76.5318C75.6982 26.2174 74.0924 27.1369 72.0659 27.1369C67.8256 27.1369 63.9409 23.3569 63.9409 18.493C63.9409 13.5939 67.8256 9.78259 72.0659 9.78259C74.0885 9.78259 75.6944 10.7022 76.5318 11.7235H76.6618V10.3109H80.1985V10.3069ZM76.9256 18.493C76.9256 15.4369 74.9335 13.2026 72.3985 13.2026C69.8291 13.2026 67.6765 15.4369 67.6765 18.493C67.6765 21.5178 69.8291 23.7209 72.3985 23.7209C74.9335 23.7209 76.9256 21.5178 76.9256 18.493Z" fill="white"/>
<path d="M86.0294 1.17389V26.6087H82.3971V1.17389H86.0294Z" fill="white"/>
<path d="M100.184 21.3183L103.075 23.2904C102.142 24.703 99.8935 27.1369 96.0088 27.1369C91.1912 27.1369 87.5932 23.3256 87.5932 18.4578C87.5932 13.2965 91.2218 9.77869 95.5921 9.77869C99.9929 9.77869 102.146 13.363 102.849 15.3L103.235 16.2861L91.8985 21.0913C92.7665 22.8326 94.1162 23.7209 96.0088 23.7209C97.9053 23.7209 99.2206 22.7661 100.184 21.3183ZM91.2868 18.1956L98.865 14.9752C98.4482 13.8913 97.1941 13.1361 95.7182 13.1361C93.8256 13.1361 91.1912 14.8461 91.2868 18.1956Z" fill="white"/>
<path d="M13.4932 16.2039V12.5217H25.6176C25.7362 13.1635 25.7973 13.9226 25.7973 14.7443C25.7973 17.5069 25.0594 20.923 22.6812 23.3569C20.3679 25.8222 17.4123 27.1369 13.497 27.1369C6.23999 27.1369 0.137634 21.0874 0.137634 13.6604C0.137634 6.23346 6.23999 0.183899 13.497 0.183899C17.5118 0.183899 20.3718 1.79607 22.5206 3.89738L19.9818 6.49564C18.4409 5.01651 16.3532 3.86607 13.4932 3.86607C8.19381 3.86607 4.04911 8.23694 4.04911 13.6604C4.04911 19.0839 8.19381 23.4548 13.4932 23.4548C16.9306 23.4548 18.8882 22.0422 20.1423 20.7587C21.1594 19.7178 21.8285 18.2309 22.0923 16.2L13.4932 16.2039Z" fill="white"/>
</svg>
