<svg width="102" height="28" viewBox="0 0 102 28" fill="none" xmlns="http://www.w3.org/2000/svg">
<g clip-path="url(#clip0_1_994)">
<path d="M74.9694 2.55309C74.9694 1.49041 75.8481 0.628424 76.932 0.628424H99.5645C100.648 0.628424 101.527 1.49041 101.527 2.55309V25.5719C101.527 26.635 100.648 27.4966 99.5645 27.4966H76.932C75.8481 27.4966 74.9694 26.635 74.9694 25.5719V2.55309Z" fill="white"/>
<path fill-rule="evenodd" clip-rule="evenodd" d="M0.625916 23.1342H11.7092V19.4762H4.63681V5.51997H0.625916V23.1342Z" fill="white"/>
<path fill-rule="evenodd" clip-rule="evenodd" d="M17.3205 23.1342V11.0021H13.3092V23.1342H17.3205ZM15.3149 9.34561C16.7137 9.34561 17.5843 8.41397 17.5843 7.24898C17.5583 6.05885 16.7137 5.15342 15.3415 5.15342C13.9692 5.15342 13.0721 6.05885 13.0721 7.24898C13.0721 8.41397 13.9425 9.34561 15.2887 9.34561H15.3149Z" fill="white"/>
<path fill-rule="evenodd" clip-rule="evenodd" d="M19.1829 23.1342H23.1942V16.3589C23.1942 15.9963 23.2203 15.6341 23.3264 15.3749C23.6162 14.6507 24.2762 13.9004 25.3843 13.9004C26.836 13.9004 27.4166 15.0133 27.4166 16.6433V23.1342H31.4275V16.1776C31.4275 12.4511 29.4484 10.717 26.8093 10.717C24.6455 10.717 23.6954 11.933 23.1675 12.7613H23.1943V11.0021H19.183C19.2357 12.1405 19.1829 23.1342 19.1829 23.1342Z" fill="white"/>
<path fill-rule="evenodd" clip-rule="evenodd" d="M37.0863 5.51997H33.0748V23.1342H37.0863V19.2009L38.0888 17.9321L41.2292 23.1342H46.1638L40.8862 15.6032L45.5043 10.4794H40.6752C40.6752 10.4794 37.3766 15.0636 37.0863 15.6072V5.51997Z" fill="white"/>
<path fill-rule="evenodd" clip-rule="evenodd" d="M56.891 18.0736C56.9436 17.7619 57.023 17.1642 57.023 16.4885C57.023 13.3522 55.4393 10.1685 51.2701 10.1685C46.8102 10.1685 44.7519 13.7144 44.7519 16.9305C44.7519 20.9083 47.2588 23.3927 51.6394 23.3927C53.3812 23.3927 54.9907 23.1342 56.3103 22.5907L55.7823 19.9275C54.7005 20.2883 53.5922 20.4685 52.2201 20.4685C50.3464 20.4685 48.7105 19.6956 48.5783 18.0477L56.891 18.0728V18.0736ZM48.5522 15.3454C48.6577 14.31 49.3438 12.7828 51.0591 12.7828C52.8795 12.7828 53.302 14.4138 53.302 15.3454H48.5522Z" fill="white"/>
<path fill-rule="evenodd" clip-rule="evenodd" d="M66.924 5.52V11.6175H66.8714C66.2907 10.7641 65.0765 10.1947 63.4673 10.1947C60.3795 10.1947 57.6615 12.6791 57.6877 16.923C57.6877 20.857 60.142 23.4189 63.2031 23.4189C64.8656 23.4189 66.4489 22.6941 67.2405 21.2965H67.3199L67.4782 23.1342H71.041C70.9881 22.2802 70.9349 20.805 70.9349 19.356V5.52H66.924ZM66.924 17.5186C66.924 17.8288 66.8976 18.1397 66.8447 18.3982C66.6075 19.5111 65.6572 20.2873 64.4964 20.2873C62.8338 20.2873 61.7518 18.9417 61.7518 16.8196C61.7518 14.8271 62.6756 13.2226 64.5226 13.2226C65.7627 13.2226 66.6337 14.0764 66.8714 15.1372C66.924 15.3706 66.924 15.6294 66.924 15.8621V17.5186Z" fill="white"/>
<path fill-rule="evenodd" clip-rule="evenodd" d="M83.0198 23.1199V10.9874H79.0085V23.1199H83.0198ZM81.0142 9.33091C82.413 9.33091 83.2836 8.39927 83.2836 7.23499C83.2576 6.04451 82.413 5.13872 81.0407 5.13872C79.6686 5.13872 78.7714 6.04451 78.7714 7.23499C78.7714 8.39927 79.6419 9.33091 80.988 9.33091H81.0142Z" fill="#F9717F"/>
<path fill-rule="evenodd" clip-rule="evenodd" d="M85.2394 23.1199H89.2506V16.3446C89.2506 15.982 89.2767 15.6197 89.3826 15.3605C89.6726 14.636 90.3326 13.8857 91.4407 13.8857C92.8922 13.8857 93.4729 14.9983 93.4729 16.6293V23.1199H97.4838V16.1633C97.4838 12.4367 95.5049 10.7027 92.8657 10.7027C90.7018 10.7027 89.7518 11.9187 89.224 12.7469H89.2507V10.9874H85.2395C85.2921 12.1258 85.2394 23.1199 85.2394 23.1199Z" fill="#F9717F"/>
</g>
<defs>
<clipPath id="clip0_1_994">
<rect width="102" height="28" fill="white"/>
</clipPath>
</defs>
</svg>
