<svg width="108" height="34" viewBox="0 0 108 34" fill="none" xmlns="http://www.w3.org/2000/svg">
<g clip-path="url(#clip0_1_970)">
<path d="M11.4574 0H14.7461V0.631833H14.1267C14.0184 0.631833 13.8295 0.759333 13.5573 1.0115C13.2851 1.26367 13.149 1.462 13.149 1.59233V11.2257C13.149 11.3588 13.2851 11.5515 13.5573 11.8065C13.8295 12.0615 14.0184 12.189 14.1267 12.189H14.7461V12.818H9.89368V12.1833H10.5131C10.6214 12.1833 10.8075 12.0558 11.0686 11.8008C11.3297 11.5458 11.4602 11.3532 11.4602 11.22V1.89267L6.89947 13.0475L2.34426 1.7V11.2228C2.34426 11.356 2.47481 11.5487 2.73312 11.8037C2.99144 12.0587 3.18031 12.1862 3.28864 12.1862H3.90525V12.8152H0V12.1833H0.619397C0.749942 12.1833 0.944372 12.0558 1.20546 11.8008C1.46655 11.5458 1.59432 11.3532 1.59432 11.22V1.59233C1.59432 1.462 1.46378 1.2665 1.20546 1.0115C0.947149 0.7565 0.749942 0.631833 0.619397 0.631833H0V0H3.64416L7.42165 9.5965H7.51886L11.4574 0ZM19.2707 11.5203C19.825 11.554 20.3774 11.4284 20.8651 11.1577C21.2697 10.875 21.6036 10.4995 21.84 10.0612H22.3622C22.1301 10.8842 21.686 11.6288 21.0762 12.2173C20.4071 12.7833 19.5523 13.0689 18.6847 13.0163C18.1688 13.0354 17.6557 12.9311 17.1864 12.7116C16.7171 12.4922 16.3047 12.1638 15.9821 11.7527C15.3054 10.8998 14.948 9.82925 14.9738 8.73233C14.9437 8.14528 15.0286 7.55799 15.2237 7.00483C15.4187 6.45167 15.72 5.94376 16.1099 5.51083C16.4586 5.12826 16.8819 4.82427 17.3526 4.61837C17.8232 4.41246 18.3309 4.30919 18.843 4.31517C19.3999 4.30214 19.9535 4.40431 20.4706 4.6155C20.94 4.81951 21.3698 5.10736 21.74 5.4655L20.554 7.36667L20.0651 7.39783C20.1761 6.83203 20.1426 6.24663 19.9679 5.69783C19.8641 5.44244 19.6794 5.22994 19.4432 5.09433C19.207 4.95872 18.9331 4.90784 18.6652 4.94983C18.3161 4.9272 17.9671 4.99788 17.6529 5.1549C17.3388 5.31192 17.0702 5.54985 16.8737 5.84517C16.4544 6.55571 16.2505 7.37687 16.2876 8.20533C16.2642 9.06375 16.5475 9.90158 17.0848 10.5627C17.3548 10.88 17.6917 11.131 18.0703 11.2968C18.4488 11.4627 18.8592 11.5391 19.2707 11.5203ZM27.3423 12.8152H22.4261V12.1833H23.0538C23.1843 12.1833 23.3788 12.0558 23.6398 11.8008C23.9009 11.5458 24.0287 11.3532 24.0287 11.22V1.59233C24.0287 1.462 23.9009 1.2665 23.6398 1.0115C23.3788 0.7565 23.176 0.631833 23.0538 0.631833H22.4261V0H27.3423V0.631833H26.7229C26.5924 0.631833 26.398 0.759333 26.1369 1.0115C25.8758 1.26367 25.748 1.462 25.748 1.59233V6.83967L30.2393 1.7255C30.3254 1.615 30.2393 1.40533 30.0116 1.0965C29.7838 0.787667 29.5977 0.631833 29.4894 0.631833H28.8867V0H33.4419V0.631833H32.8225C32.5165 0.73914 32.2356 0.909889 31.9975 1.13333C31.5615 1.47617 31.3031 1.7 31.2143 1.78217L28.1589 5.134L32.553 11.084C32.7662 11.3375 33.012 11.5605 33.2835 11.747C33.5017 11.9516 33.7645 12.1002 34.0502 12.1805H34.9612C35.1769 12.1349 35.372 12.0184 35.5167 11.849C35.7556 11.6252 35.875 11.4382 35.875 11.2823V6.0435C35.875 5.91033 35.7556 5.73183 35.5167 5.51083C35.372 5.3414 35.1769 5.22496 34.9612 5.17933H34.4696V4.5475H37.3666V11.288C37.3666 11.4438 37.4916 11.6308 37.7415 11.8547C37.8853 12.0154 38.0714 12.1304 38.2776 12.1862H39.2886C39.397 12.1862 39.5664 12.0757 39.808 11.8547C40.0497 11.6337 40.1663 11.4438 40.1663 11.288V6.0435C40.1663 5.91033 40.0469 5.73183 39.808 5.51083C39.5692 5.28983 39.397 5.17933 39.2886 5.17933H38.7665V4.5475H41.3385L41.6635 6.23333C42.1051 5.75762 42.5784 5.31362 43.08 4.9045C43.5895 4.5138 44.2152 4.31372 44.8521 4.33783C45.1512 4.3323 45.4483 4.38843 45.7256 4.50284C46.0029 4.61725 46.2547 4.7876 46.4659 5.00367C46.6881 5.22845 46.8622 5.49791 46.9769 5.79496C47.0917 6.092 47.1447 6.41013 47.1325 6.72917V11.288C47.1325 11.4438 47.2519 11.6308 47.4908 11.8547C47.7297 12.0785 47.9019 12.1862 48.0102 12.1862H48.5324V12.8152H44.2688V12.1833H44.7188C44.9343 12.1371 45.1292 12.0208 45.2743 11.8518C45.5132 11.628 45.6326 11.441 45.6326 11.2852V6.83967C45.6485 6.46774 45.5321 6.10249 45.3048 5.81117C45.1829 5.67317 45.0317 5.56543 44.8628 5.49619C44.6938 5.42695 44.5115 5.39804 44.3299 5.41167C43.686 5.43167 43.0648 5.65877 42.555 6.0605C41.9607 6.49117 41.6635 6.851 41.6635 7.14V11.288C41.6635 11.4438 41.7829 11.6308 42.0218 11.8547C42.1665 12.0241 42.3616 12.1405 42.5773 12.1862H43.0328V12.8152H31.3865L27.0174 6.409L25.748 7.803V11.2228C25.748 11.356 25.8758 11.5487 26.1369 11.8037C26.398 12.0587 26.5924 12.1862 26.7229 12.1862H27.3423V12.8152ZM31.7031 27.2652L31.6642 27.2255C32.0781 27.5797 32.4975 27.9338 32.9197 28.288C33.3419 28.6422 33.7918 28.985 34.2696 29.3193H35.0167V29.9823H33.6502C33.0938 29.992 32.541 29.8909 32.0225 29.6848C31.4688 29.432 30.9622 29.083 30.5254 28.6535C30.0328 29.1596 29.4387 29.551 28.7839 29.801C28.0263 30.0698 27.2277 30.1984 26.4257 30.1807C25.4064 30.1861 24.4197 29.8147 23.6482 29.1352C23.2489 28.8065 22.9294 28.3883 22.7145 27.9131C22.4997 27.4379 22.3952 26.9185 22.4094 26.3953C22.4012 25.6172 22.5927 24.8504 22.9649 24.1712C23.326 23.5186 23.8321 22.9616 24.4426 22.5448C24.1505 22.1666 23.9043 21.7537 23.7093 21.3152C23.517 20.8542 23.4223 20.3569 23.4315 19.856C23.4083 19.4656 23.4688 19.0747 23.6089 18.7107C23.749 18.3466 23.9652 18.0181 24.2426 17.748C24.8629 17.2211 25.6559 16.9538 26.4618 17C26.9261 16.984 27.3896 17.0512 27.8312 17.1983C28.1208 17.3198 28.4293 17.3879 28.7422 17.3995C28.8626 17.4025 28.9828 17.3911 29.1005 17.3655C29.1991 17.3325 29.2809 17.2612 29.3283 17.1672H29.8838V20.1875H29.3283C29.2421 19.5638 28.9478 18.9895 28.495 18.5612C28.2427 18.2537 27.9262 18.0077 27.5686 17.841C27.2111 17.6743 26.8216 17.5912 26.4285 17.5978C25.8576 17.5658 25.2935 17.736 24.8314 18.0795C24.6376 18.241 24.4835 18.4466 24.3818 18.6799C24.28 18.9131 24.2332 19.1675 24.2454 19.4225C24.2421 19.922 24.4157 20.4059 24.7342 20.7853C25.0847 21.2021 25.5328 21.5218 26.0369 21.7147C26.8387 22.6024 27.7062 23.4931 28.6395 24.3865C29.5727 25.2799 30.4625 26.1158 31.3087 26.894C31.5403 26.5152 31.711 26.101 31.8142 25.6672C31.916 25.2022 31.9654 24.7269 31.9614 24.2505C31.9727 23.9947 31.9305 23.7393 31.8376 23.5014C31.7447 23.2635 31.6032 23.0485 31.4226 22.8707C31.0248 22.5127 30.5051 22.3286 29.9755 22.3578V21.7147H34.4418V22.3125H33.9557C33.8474 22.3125 33.6335 22.4995 33.3197 22.8792C33.0857 23.1025 32.9215 23.3913 32.8475 23.7093V23.7433C32.8259 24.381 32.7165 25.0124 32.5225 25.619C32.3358 26.2065 32.0593 26.7601 31.7031 27.2595V27.2652ZM27.4396 29.1918C27.9532 29.1989 28.4645 29.1204 28.9533 28.9595C29.3869 28.8111 29.7975 28.6003 30.1727 28.3333L30.0755 28.2682C29.1496 27.4257 28.2386 26.5625 27.3423 25.6785C26.4461 24.7945 25.5777 23.8642 24.737 22.8877C24.4266 23.2194 24.1739 23.6027 23.9898 24.021C23.7961 24.5277 23.7072 25.0699 23.7287 25.6133C23.7413 26.0885 23.8539 26.5553 24.0591 26.9821C24.2642 27.4089 24.557 27.7857 24.9175 28.0868C25.5887 28.7695 26.4919 29.1622 27.4396 29.1833V29.1918ZM36.4555 2.5245H36.4222C36.1493 2.527 35.8866 2.419 35.6917 2.22417C35.5916 2.13213 35.512 2.01924 35.4583 1.89313C35.4047 1.76702 35.3782 1.63063 35.3806 1.49317V1.462C35.3727 1.31631 35.3965 1.17065 35.4503 1.03545C35.504 0.900245 35.5865 0.778861 35.6917 0.68C35.9065 0.498467 36.1766 0.399124 36.4555 0.399124C36.7344 0.399124 37.0046 0.498467 37.2193 0.68C37.3246 0.778861 37.407 0.900245 37.4608 1.03545C37.5146 1.17065 37.5384 1.31631 37.5304 1.462H37.4971C37.5193 1.462 37.5304 1.462 37.5304 1.49317C37.5329 1.63063 37.5064 1.76702 37.4527 1.89313C37.3991 2.01924 37.3195 2.13213 37.2193 2.22417C37.0342 2.41479 36.7825 2.52278 36.5194 2.5245H36.4555ZM44.7188 29.1182C45.6119 29.1707 46.499 28.939 47.2575 28.4552C47.9142 27.9508 48.4389 27.2891 48.7851 26.5285H49.4406C49.0811 27.607 48.4113 28.55 47.5186 29.2343C46.6004 29.9048 45.4919 30.2492 44.3632 30.2147C43.5407 30.2448 42.7224 30.0815 41.9716 29.7376C41.2208 29.3938 40.5575 28.8784 40.033 28.2313C38.9455 26.9079 38.367 25.2261 38.4054 23.4997C38.3615 21.8197 38.8907 20.1764 39.9025 18.8502C40.3935 18.2193 41.024 17.7161 41.7424 17.3817C42.4608 17.0473 43.2466 16.8913 44.0355 16.9263C44.6235 16.9126 45.209 17.0087 45.7631 17.2097C46.2292 17.3973 46.7259 17.4934 47.2269 17.493C47.3831 17.5008 47.539 17.4717 47.6824 17.408C47.8034 17.3447 47.9132 17.2614 48.0074 17.1615H48.4629V21.6807H47.9074C47.8135 20.7688 47.4634 19.9039 46.8992 19.1902C46.5979 18.7166 46.1819 18.3303 45.6914 18.0688C45.2009 17.8072 44.6526 17.6791 44.0994 17.697C43.6276 17.6714 43.1558 17.7453 42.7133 17.9139C42.2708 18.0826 41.8671 18.3425 41.5274 18.6773C40.8096 19.5586 40.4166 20.6681 40.4163 21.8138V21.7487C40.3941 21.9923 40.3774 22.236 40.3663 22.4797C40.3663 22.7233 40.3497 22.9755 40.3497 23.2418C40.3497 23.5507 40.3497 23.868 40.383 24.1882C40.4163 24.5083 40.4274 24.803 40.4469 25.0693C40.5335 26.1466 40.9818 27.1604 41.7162 27.9395C42.1075 28.34 42.5771 28.652 43.0944 28.8551C43.6118 29.0581 44.1652 29.1478 44.7188 29.1182ZM54.9958 10.4918C55.0151 10.8376 54.9593 11.1834 54.8326 11.5047C54.7058 11.826 54.5112 12.1148 54.2625 12.3505C53.7437 12.8064 53.0746 13.0443 52.3904 13.0163C51.9436 13.0301 51.4992 12.945 51.0877 12.767C50.7631 12.6056 50.4072 12.5204 50.0461 12.5177C49.9221 12.5054 49.7974 12.5342 49.6906 12.5998L49.4295 12.8152H49.0518V9.894H49.5406C49.6313 10.4633 49.8991 10.9878 50.3045 11.39C50.562 11.6977 50.8851 11.9414 51.249 12.1025C51.6129 12.2635 52.008 12.3377 52.4043 12.3193C52.8115 12.341 53.2167 12.2489 53.5764 12.053C53.715 11.9629 53.8274 11.8365 53.9016 11.687C53.9759 11.5374 54.0094 11.3703 53.9986 11.203C54.0135 11.0036 53.9744 10.8039 53.8858 10.6256C53.7972 10.4473 53.6623 10.2971 53.4959 10.1915C53.1667 9.98503 52.8243 9.80139 52.471 9.64183C52.1654 9.5115 51.8904 9.38967 51.6377 9.27917C51.3849 9.16867 51.0988 9.04683 50.7739 8.91367C50.314 8.69693 49.8954 8.39857 49.5378 8.0325C49.371 7.84743 49.2419 7.63041 49.158 7.39402C49.0741 7.15764 49.037 6.90661 49.049 6.6555C49.0287 6.34062 49.0766 6.02505 49.1894 5.73122C49.3023 5.4374 49.4772 5.17254 49.7017 4.9555C50.1193 4.6535 50.6039 4.46201 51.112 4.39821C51.62 4.33442 52.1357 4.40032 52.6126 4.59C52.8915 4.73148 53.1983 4.80611 53.5098 4.80817C53.6048 4.81132 53.6995 4.79394 53.7875 4.75717C53.868 4.7207 53.9323 4.65507 53.9681 4.573H54.3903V7.123H53.9014C53.8224 6.61934 53.589 6.15415 53.2348 5.79417C53.0173 5.52281 52.741 5.30662 52.4278 5.16257C52.1145 5.01853 51.7727 4.95055 51.4294 4.964C51.0528 4.93258 50.6776 5.03906 50.3711 5.26433C50.2613 5.35665 50.1734 5.47323 50.1142 5.60527C50.055 5.73731 50.0261 5.88135 50.0295 6.0265C50.0194 6.17915 50.0469 6.33195 50.1095 6.47099C50.1721 6.61004 50.2677 6.73093 50.3878 6.82267C50.6956 7.04075 51.0219 7.23039 51.3627 7.38933C51.6682 7.51967 51.9543 7.6415 52.2265 7.752L53.1209 8.1175C53.5877 8.3176 54.0172 8.59845 54.3903 8.94767C54.5962 9.14277 54.7582 9.38108 54.8651 9.64619C54.972 9.9113 55.0213 10.1969 55.0096 10.4833L54.9958 10.4918ZM57.1261 22.644C57.5402 23.0562 57.8633 23.5538 58.074 24.1034C58.2848 24.653 58.3783 25.2421 58.3483 25.8315C58.3778 26.4234 58.2841 27.0149 58.0735 27.5672C57.8629 28.1195 57.54 28.6201 57.1261 29.036C56.3784 29.7936 55.3664 30.2176 54.3125 30.2147C53.2469 30.2227 52.2219 29.7987 51.4627 29.036C51.0493 28.6198 50.727 28.1192 50.5168 27.5669C50.3067 27.0146 50.2135 26.4232 50.2434 25.8315C50.2121 25.2688 50.2945 24.7055 50.4854 24.1766C50.6763 23.6477 50.9717 23.1644 51.3532 22.7566C51.7347 22.3489 52.1941 22.0254 52.7032 21.8062C53.2122 21.587 53.76 21.4768 54.3125 21.4823C55.3682 21.4746 56.3843 21.892 57.14 22.644H57.1261ZM56.7345 27.2V27.2652C56.7567 27.0215 56.7706 26.7778 56.7817 26.5342C56.7928 26.2905 56.7984 26.0468 56.7984 25.8032C56.7984 25.5595 56.7984 25.3243 56.7817 25.092C56.7651 24.8597 56.7567 24.6415 56.7345 24.4432C56.6839 23.837 56.4377 23.2651 56.0346 22.8168C55.8048 22.6036 55.5348 22.4406 55.241 22.3378C54.9473 22.235 54.636 22.1946 54.3264 22.219C54.0233 22.1971 53.719 22.2389 53.4324 22.3417C53.1457 22.4445 52.8828 22.6062 52.6598 22.8168C52.261 23.2545 52.015 23.8143 51.9599 24.4092V24.3667C51.9167 24.5967 51.8898 24.8297 51.8793 25.0637C51.8793 25.3073 51.8627 25.551 51.8627 25.7918C51.8627 26.0327 51.8627 26.2735 51.8793 26.5058C51.889 26.724 51.916 26.941 51.9599 27.1547C52.0243 27.747 52.2691 28.3039 52.6598 28.747C52.8779 28.9667 53.1392 29.1367 53.4265 29.2456C53.7138 29.3545 54.0206 29.3999 54.3264 29.3788C54.6402 29.4069 54.9562 29.3666 55.2536 29.2606C55.551 29.1546 55.8229 28.9853 56.0512 28.764C56.4317 28.327 56.6703 27.7807 56.7345 27.2ZM59.4038 13.0333C58.8902 13.0433 58.3812 12.9333 57.9157 12.7118C57.4501 12.4904 57.0404 12.1633 56.7178 11.7555C56.0141 10.9073 55.6378 9.82634 55.6596 8.71533C55.626 7.57631 56.0091 6.4653 56.7345 5.59867C57.0565 5.19777 57.4649 4.87819 57.9279 4.66489C58.391 4.45158 58.896 4.35032 59.4038 4.369C59.7978 4.34659 60.192 4.4109 60.5596 4.55756C60.9272 4.70421 61.2595 4.9298 61.5341 5.219C62.044 5.77536 62.3399 6.50074 62.3674 7.26183L62.4007 7.85967L56.9956 8.30167C57.0066 9.09749 57.2806 9.86622 57.7733 10.4833C58.0209 10.8225 58.3459 11.095 58.72 11.2772C59.0941 11.4594 59.5061 11.5457 59.9204 11.5288C60.4798 11.5609 61.0371 11.4355 61.5314 11.1662C61.9339 10.8985 62.2643 10.5322 62.4924 10.1008H62.9813C62.7744 10.9196 62.345 11.6621 61.7425 12.2428C61.0868 12.793 60.2511 13.0693 59.4038 13.0163V13.0333ZM59.3704 4.998C59.0154 4.96777 58.6589 5.03296 58.3362 5.18706C58.0136 5.34117 57.7362 5.57882 57.5317 5.87633C57.1651 6.42129 56.9562 7.06049 56.9289 7.72083L60.9981 7.36667C61.0677 6.81111 61.0058 6.24663 60.8175 5.7205C60.6398 5.22939 60.1574 4.98289 59.3704 4.981V4.998ZM69.2002 29.3647C69.3308 29.3647 69.5085 29.2485 69.7363 29.0162C69.9641 28.7838 70.0779 28.6025 70.0779 28.4693V23.936C70.0926 23.5822 69.9833 23.2347 69.7696 22.9557C69.6436 22.8194 69.4888 22.7141 69.317 22.6479C69.1452 22.5816 68.9609 22.556 68.778 22.5732C68.2017 22.5927 67.6471 22.8025 67.1976 23.171C66.6662 23.5714 66.4004 23.9039 66.4004 24.1683V28.4835C66.4004 28.6167 66.5143 28.798 66.7421 29.0303C66.9698 29.2627 67.1393 29.3788 67.2476 29.3788H67.7364V30.0107H63.5701V29.3788H64.0256C64.1562 29.3788 64.3339 29.2627 64.5617 29.0303C64.7894 28.798 64.9033 28.6167 64.9033 28.4835V23.9502C64.9212 23.5828 64.8055 23.2216 64.5784 22.9358C64.4533 22.8022 64.3008 22.6985 64.1317 22.6324C63.9626 22.5662 63.7812 22.5392 63.6007 22.5533C63.0093 22.5731 62.4417 22.7957 61.9897 23.1852C61.4582 23.6045 61.1925 23.9587 61.1925 24.2477V28.4977C61.1925 28.6308 61.3064 28.8122 61.5341 29.0445C61.7619 29.2768 61.9424 29.393 62.073 29.393H62.5285V30.0248H58.3622V29.393H58.851C58.9593 29.393 59.1288 29.2768 59.3538 29.0445C59.5787 28.8122 59.6954 28.6308 59.6954 28.4977V23.2078C59.6954 23.0775 59.5815 22.899 59.3538 22.678C59.126 22.457 58.9593 22.3465 58.851 22.3465H58.3622V21.7147H60.862L61.1869 23.3098C61.6647 22.7998 62.0989 22.3729 62.4896 22.0292C62.9658 21.6578 63.5581 21.4755 64.1562 21.5163C64.6676 21.5058 65.1689 21.6627 65.5866 21.964C65.7945 22.1171 65.9686 22.313 66.0978 22.5389C66.2269 22.7648 66.3083 23.0159 66.3365 23.2758C66.8337 22.7885 67.292 22.3777 67.7031 22.0462C68.1739 21.6952 68.7483 21.5192 69.3308 21.5475C69.9204 21.5327 70.4925 21.7533 70.9251 22.1623C71.1492 22.3892 71.3233 22.6623 71.4359 22.9632C71.5485 23.2642 71.5968 23.5861 71.5778 23.9077V28.441C71.5778 28.5742 71.6917 28.7555 71.9194 28.9878C72.1472 29.2202 72.3139 29.3363 72.4222 29.3363H72.911V29.9682H68.7447V29.3363L69.2002 29.3647ZM63.7645 6.13133C63.6288 5.91455 63.4578 5.72293 63.259 5.56467C62.9813 5.321 62.7979 5.19917 62.7035 5.19917H62.3452V4.5475H66.7393V5.17933H66.2199C66.1116 5.17933 65.9699 5.28983 65.7977 5.51083C65.6521 5.66541 65.5604 5.86452 65.5366 6.0775L67.4809 10.1603L69.2724 6.10867C69.2734 5.99735 69.2522 5.88699 69.2102 5.78424C69.1682 5.68149 69.1062 5.58849 69.028 5.51083C68.8428 5.28983 68.6956 5.17933 68.5864 5.17933H68.0503V4.5475H71.3389V5.17933H70.9806C70.8723 5.17933 70.7029 5.2955 70.4751 5.52783C70.2964 5.69356 70.1479 5.8902 70.0363 6.10867L67.2587 12.1182L64.87 16.8017L64.1617 16.4333L66.6338 11.883L63.7645 6.13133ZM78.5106 21.505C78.9645 21.4867 79.4158 21.5832 79.8244 21.7859C80.2329 21.9886 80.5859 22.2911 80.8521 22.6667C81.4471 23.5657 81.7395 24.6377 81.6854 25.721C81.7291 26.8614 81.3965 27.9837 80.741 28.9085C80.4705 29.3029 80.1099 29.6242 79.6902 29.8444C79.2706 30.0646 78.8047 30.1771 78.3328 30.1722C77.7361 30.2029 77.1432 30.0584 76.6246 29.7557C76.1659 29.4391 75.791 29.0118 75.5331 28.5118V32.4955C75.5331 32.6513 75.6525 32.8383 75.8914 33.0622C76.1302 33.286 76.3052 33.3937 76.4136 33.3937H76.9385V34H72.65V33.3682H73.1721C73.3825 33.3229 73.5716 33.206 73.7082 33.0367C73.8894 32.8997 74.0118 32.6967 74.0498 32.47V23.2078C74.0498 23.0775 73.936 22.899 73.7082 22.678C73.5716 22.5086 73.3825 22.3917 73.1721 22.3465H72.65V21.6807H75.2859L75.547 23.409C75.8435 22.8263 76.2732 22.3248 76.7996 21.947C77.313 21.6243 77.908 21.4627 78.5106 21.4823V21.505ZM80.1383 27.0838V27.115L80.2021 26.452C80.2243 26.2317 80.2355 26.0104 80.2355 25.789C80.2358 25.5949 80.2247 25.4009 80.2021 25.2082C80.1799 25.0183 80.1577 24.837 80.1383 24.6585C80.085 24.0773 79.857 23.5272 79.4855 23.0832C79.3074 22.8927 79.0912 22.7435 78.8516 22.6457C78.612 22.5479 78.3545 22.5039 78.0968 22.5165C77.7964 22.5036 77.4967 22.5543 77.2166 22.6655C76.9364 22.7767 76.6819 22.9459 76.4691 23.1625C76.0448 23.6178 75.7325 24.1694 75.5581 24.7718V26.9308C75.5547 27.2405 75.6136 27.5476 75.7311 27.8332C75.8487 28.1187 76.0223 28.3767 76.2413 28.5912C76.4576 28.8175 76.7171 28.9961 77.0037 29.116C77.2904 29.2359 77.5981 29.2945 77.9079 29.2882H77.9412C78.2299 29.3107 78.5198 29.2672 78.7899 29.1608C79.0599 29.0544 79.3033 28.8879 79.5022 28.6733C79.8663 28.2122 80.0878 27.651 80.1383 27.0612V27.0838ZM98.5285 28.4778C98.5285 28.611 98.6479 28.7923 98.8868 29.0247C99.1257 29.257 99.2979 29.3732 99.4062 29.3732H99.8951V30.005H95.6315V29.3732H96.1037C96.2148 29.3732 96.3815 29.257 96.6259 29.0247C96.8703 28.7923 96.9842 28.611 96.9842 28.4778V23.9728C96.9956 23.6099 96.887 23.2537 96.6759 22.9613C96.5602 22.8184 96.4124 22.7059 96.2452 22.6334C96.0779 22.561 95.896 22.5306 95.7148 22.5448C95.0689 22.5664 94.4468 22.7988 93.94 23.2078C93.3419 23.6536 93.0438 24.0078 93.0456 24.2703V28.4552C93.0456 28.611 93.165 28.798 93.4039 29.0218C93.5486 29.1913 93.7437 29.3077 93.9594 29.3533H94.4372V29.9852H87.5266L87.2988 28.2597C86.9565 28.7187 86.5754 29.1462 86.16 29.5375C85.7374 29.9428 85.1762 30.1634 84.5963 30.1523C84.3229 30.1543 84.0521 30.0993 83.8004 29.9907C83.5487 29.882 83.3214 29.722 83.1325 29.5205C82.9258 29.307 82.7642 29.0525 82.6576 28.7728C82.5511 28.4931 82.5019 28.194 82.5131 27.8942C82.482 27.5421 82.5495 27.1882 82.7079 26.8737C82.8662 26.5592 83.1088 26.297 83.4075 26.1177C83.9517 25.7964 84.5381 25.5559 85.149 25.4037L87.2655 24.9702L87.2988 23.9757C87.3232 23.4744 87.1605 22.9823 86.8433 22.5987C86.6321 22.4066 86.3839 22.2615 86.1147 22.1727C85.8454 22.0839 85.561 22.0534 85.2795 22.083C85.0064 22.0495 84.7296 22.0937 84.4796 22.2108C84.2296 22.3278 84.0162 22.513 83.863 22.746C83.7412 23.0201 83.6852 23.3199 83.6997 23.6204C83.7142 23.921 83.7987 24.2138 83.9463 24.4743H83.3602L82.2492 22.814C82.6941 22.3676 83.2243 22.0193 83.8068 21.7907C84.3892 21.5621 85.0115 21.4581 85.6351 21.4852C86.4321 21.4574 87.2176 21.6842 87.8821 22.134C88.1782 22.3414 88.4174 22.6226 88.5768 22.9509C88.7363 23.2793 88.8108 23.6437 88.7932 24.0097V28.458C88.7932 28.5912 88.9126 28.7668 89.1515 28.9878C89.3903 29.2088 89.5625 29.3222 89.6709 29.3222H90.6486C90.8649 29.2764 91.0602 29.1588 91.2041 28.9878C91.4429 28.7668 91.5624 28.5912 91.5624 28.458V23.2078C91.5624 23.0775 91.4429 22.899 91.2041 22.678C91.0594 22.5086 90.8643 22.3921 90.6486 22.3465H90.1597V21.6807H92.7317L93.0567 23.409C93.4919 22.9368 93.9557 22.493 94.4455 22.0802C94.9585 21.6838 95.5914 21.4833 96.2342 21.5135C96.5327 21.508 96.8291 21.5638 97.1059 21.6778C97.3827 21.7917 97.6341 21.9613 97.8452 22.1765C98.0685 22.4013 98.2433 22.6711 98.3586 22.9687C98.4739 23.2663 98.527 23.5851 98.5146 23.9048L98.5285 28.4778ZM87.2988 25.534L85.3545 26.0327C84.937 26.1019 84.5566 26.3185 84.2796 26.6447C84.0782 26.9422 83.9751 27.2976 83.9852 27.659V27.6902C83.9827 27.8593 84.0131 28.0272 84.0746 28.1843C84.1361 28.3414 84.2275 28.4845 84.3435 28.6053C84.4558 28.7283 84.5922 28.8257 84.744 28.8911C84.8957 28.9566 85.0593 28.9886 85.224 28.985H85.2712C85.7073 28.9671 86.1228 28.7913 86.4433 28.4892C86.7736 28.2196 87.0555 27.8937 87.2766 27.5258L87.2988 25.534ZM108 21.7147V22.3465H107.608C107.522 22.3465 107.364 22.4627 107.136 22.695C106.964 22.8631 106.806 23.046 106.664 23.2418L103.931 29.2853L101.489 33.9348L100.806 33.5693L103.248 29.019L100.384 23.2758C100.247 23.0598 100.076 22.8683 99.8784 22.7092C99.6007 22.4655 99.4284 22.3437 99.3423 22.3437H98.9507V21.7147H103.345V22.3465H102.856C102.748 22.3465 102.6 22.457 102.417 22.678C102.265 22.8295 102.167 23.0292 102.139 23.2447L104.084 27.3303L105.883 23.2333C105.884 23.1267 105.862 23.0212 105.82 22.9236C105.778 22.8261 105.716 22.7385 105.639 22.6667C105.456 22.4457 105.309 22.3352 105.2 22.3352H104.681V21.7147H108Z" fill="white"/>
</g>
<defs>
<clipPath id="clip0_1_970">
<rect width="108" height="34" fill="white"/>
</clipPath>
</defs>
</svg>
