<svg width="100" height="30" viewBox="0 0 100 30" fill="none" xmlns="http://www.w3.org/2000/svg">
<g clip-path="url(#clip0_1_974)">
<path d="M11.3 1.70004C11.5 1.70004 11.6 1.80004 11.8 1.90004C10.6 2.40004 9.4 3.70004 8.8 6.50004L6.6 7.10004C7.3 5.10004 8.7 1.70004 11.3 1.70004ZM12.4 2.70004C12.6 3.30004 12.8 4.00004 12.8 5.10004C12.8 5.20004 12.8 5.20004 12.8 5.30004L9.9 6.10004C10.5 4.00004 11.5 3.10004 12.4 2.70004ZM15 4.50004L13.7 4.90004C13.7 4.80004 13.7 4.70004 13.7 4.60004C13.7 3.70004 13.6 3.00004 13.4 2.40004C14.1 2.60004 14.7 3.50004 15 4.50004ZM21.5 6.10004C21.5 6.00004 21.4 5.90004 21.3 5.90004C21.1 5.90004 19 5.70004 19 5.70004C19 5.70004 17.5 4.20004 17.3 4.10004C17.1 3.90004 16.8 4.00004 16.7 4.00004C16.7 4.00004 16.4 4.10004 15.9 4.30004C15.4 2.90004 14.5 1.60004 13 1.60004H12.9C12.5 1.00004 11.9 0.80004 11.4 0.80004C7.8 0.70004 6.1 5.20004 5.5 7.50004C4.7 7.70004 3.9 8.00004 3 8.30004C2.2 8.50004 2.2 8.60004 2.1 9.30004C2 9.80004 0 25.6 0 25.6L15.9 28.6L24.5 26.7C24.5 26.7 21.5 6.30004 21.5 6.10004Z" fill="white"/>
<path d="M21.2 5.90006C21.1 5.90006 19 5.70006 19 5.70006C19 5.70006 17.5 4.20006 17.3 4.10006C17.2 4.00006 17.2 4.00006 17.1 4.00006L15.9 28.6001L24.5 26.7001C24.5 26.7001 21.5 6.30006 21.5 6.10006C21.5 6.00006 21.3 5.90006 21.2 5.90006Z" fill="white"/>
<path d="M13 10.7L11.9 13.9C11.9 13.9 11 13.4 9.80001 13.4C8.10001 13.4 8.00001 14.4 8.00001 14.7C8.00001 16.1 11.8 16.7 11.8 20.1C11.8 22.8 10.1 24.5 7.80001 24.5C5.10001 24.5 3.70001 22.8 3.70001 22.8L4.40001 20.4C4.40001 20.4 5.80001 21.6 7.00001 21.6C7.80001 21.6 8.10001 21 8.10001 20.5C8.10001 18.6 5.00001 18.5 5.00001 15.4C5.00001 12.8 6.90001 10.3 10.6 10.3C12.3 10.2 13 10.7 13 10.7Z" fill="#FA78A2"/>
<path d="M34.6 16.6C33.7 16.1 33.3 15.7 33.3 15.2C33.3 14.5 33.9 14.1 34.9 14.1C36 14.1 37 14.6 37 14.6L37.8 12.2C37.8 12.2 37.1 11.6 35 11.6C32 11.6 30 13.3 30 15.7C30 17.1 31 18.1 32.2 18.8C33.2 19.4 33.6 19.8 33.6 20.4C33.6 21 33.1 21.6 32.1 21.6C30.7 21.6 29.3 20.9 29.3 20.9L28.5 23.3C28.5 23.3 29.7 24.1 31.8 24.1C34.8 24.1 37 22.6 37 19.9C37 18.4 35.9 17.3 34.6 16.6ZM46.7 11.5C45.2 11.5 44 12.2 43.1 13.3L44.4 6.50001H41L37.7 23.8H41.1L42.2 17.9C42.6 15.7 43.8 14.3 44.9 14.3C45.7 14.3 46 14.8 46 15.6C46 16.1 46 16.6 45.9 17.1L44.6 23.9H48L49.3 16.9C49.4 16.2 49.5 15.3 49.5 14.7C49.5 12.7 48.5 11.5 46.7 11.5ZM55.4 21.4C54.2 21.4 53.8 20.4 53.8 19.2C53.8 17.3 54.8 14.1 56.6 14.1C57.8 14.1 58.2 15.1 58.2 16.1C58.2 18.3 57.2 21.4 55.4 21.4ZM57.1 11.5C53 11.5 50.3 15.2 50.3 19.3C50.3 21.9 51.9 24 55 24C59 24 61.7 20.4 61.7 16.2C61.7 13.8 60.3 11.5 57.1 11.5ZM67.1 21.5C66.2 21.5 65.7 21 65.7 21L66.3 17.8C66.7 15.7 67.8 14.3 69 14.3C70 14.3 70.4 15.3 70.4 16.2C70.3 18.4 69 21.5 67.1 21.5ZM70.4 11.5C68.1 11.5 66.8 13.5 66.8 13.5L67 11.7H64C63.9 12.9 63.6 14.8 63.3 16.2L60.9 28.6H64.3L65.2 23.6H65.3C65.3 23.6 66 24 67.3 24C71.3 24 73.9 19.9 73.9 15.8C73.9 13.6 72.9 11.5 70.4 11.5ZM78.7 6.70001C77.6 6.70001 76.8 7.60001 76.8 8.70001C76.8 9.70001 77.4 10.4 78.4 10.4C79.5 10.4 80.4 9.70001 80.4 8.40001C80.4 7.40001 79.7 6.70001 78.7 6.70001ZM74 23.8H77.4L79.7 11.8H76.3L74 23.8ZM88.3 11.8H85.9L86 11.2C86.2 10 86.9 9.00001 88 9.00001C88.6 9.00001 89.1 9.20001 89.1 9.20001L89.8 6.50001C89.8 6.50001 89.2 6.20001 88 6.20001C86.8 6.20001 85.6 6.50001 84.7 7.30001C83.5 8.30001 83 9.70001 82.7 11.1L82.6 11.7H81L80.5 14.3H82.1L80.3 23.8H83.7L85.5 14.3H87.8L88.3 11.8ZM96.4 11.8C96.4 11.8 94.3 17.1 93.3 20C93.2 19.1 92.5 11.8 92.5 11.8H88.9L90.9 22.8C90.9 23 90.9 23.2 90.8 23.4C90.4 24.2 89.7 24.9 89 25.4C88.4 25.9 87.6 26.2 87.1 26.4L88 29.3C88.7 29.2 90.1 28.6 91.3 27.5C92.8 26.1 94.3 23.8 95.7 20.8L99.8 11.9L96.4 11.8Z" fill="white"/>
</g>
<defs>
<clipPath id="clip0_1_974">
<rect width="100" height="28.6" fill="white" transform="translate(0 0.700012)"/>
</clipPath>
</defs>
</svg>
