<svg width="70" height="28" viewBox="0 0 70 28" fill="none" xmlns="http://www.w3.org/2000/svg">
<g clip-path="url(#clip0_1_1006)">
<path fill-rule="evenodd" clip-rule="evenodd" d="M70 14.4637C70 9.67997 67.6578 5.90527 63.181 5.90527C58.6854 5.90527 55.9654 9.67997 55.9654 14.4264C55.9654 20.051 59.1765 22.8914 63.7855 22.8914C66.0333 22.8914 67.7333 22.3869 69.0178 21.6768V17.9394C67.7333 18.5748 66.26 18.9672 64.3899 18.9672C62.5577 18.9672 60.9332 18.3319 60.7254 16.1268H69.9622C69.9622 15.8839 70 14.9122 70 14.4637ZM60.6688 12.6885C60.6688 10.5769 61.9721 9.69865 63.1621 9.69865C64.3144 9.69865 65.5422 10.5769 65.5422 12.6885H60.6688Z" fill="white"/>
<path fill-rule="evenodd" clip-rule="evenodd" d="M48.6748 5.90527C46.8236 5.90527 45.6336 6.76486 44.9725 7.36283L44.727 6.20426H40.5714V27.9928L45.2936 27.0024L45.3125 21.7141C45.9925 22.2 46.9936 22.8914 48.6559 22.8914C52.037 22.8914 55.116 20.2005 55.116 14.2769C55.0971 8.85776 51.9804 5.90527 48.6748 5.90527ZM47.5414 18.7803C46.427 18.7803 45.7659 18.3879 45.3125 17.9021L45.2936 10.9693C45.7847 10.4274 46.4648 10.0537 47.5414 10.0537C49.2603 10.0537 50.4504 11.9597 50.4504 14.4077C50.4504 16.9117 49.2792 18.7803 47.5414 18.7803Z" fill="white"/>
<path fill-rule="evenodd" clip-rule="evenodd" d="M34.0745 4.80246L38.8157 3.79338V0L34.0745 0.99039V4.80246Z" fill="white"/>
<path d="M38.8157 6.22266H34.0745V22.5734H38.8157V6.22266Z" fill="white"/>
<path fill-rule="evenodd" clip-rule="evenodd" d="M28.9923 7.60526L28.6901 6.22245H24.61V22.5732H29.3323V11.4921C30.4468 10.0532 32.3357 10.3148 32.9213 10.5204V6.22245C32.3168 5.99821 30.1068 5.58711 28.9923 7.60526Z" fill="white"/>
<path fill-rule="evenodd" clip-rule="evenodd" d="M19.5476 2.16797L14.9386 3.13967L14.9197 18.1076C14.9197 20.8733 17.0164 22.9101 19.812 22.9101C21.3609 22.9101 22.4943 22.6298 23.1176 22.2934V18.5001C22.5132 18.743 19.5287 19.6026 19.5287 16.8369V10.2032H23.1176V6.22296H19.5287L19.5476 2.16797Z" fill="white"/>
<path fill-rule="evenodd" clip-rule="evenodd" d="M6.77895 10.9693C6.77895 10.2406 7.3834 9.96027 8.38452 9.96027C9.8201 9.96027 11.6335 10.3901 13.069 11.1562V6.76486C11.5012 6.1482 9.95232 5.90527 8.38452 5.90527C4.55003 5.90527 2 7.88605 2 11.1936C2 16.3511 9.17787 15.5289 9.17787 17.7526C9.17787 18.6122 8.4223 18.8925 7.36451 18.8925C5.79671 18.8925 3.79447 18.2571 2.20778 17.3975V21.8449C3.96447 22.5924 5.74005 22.9101 7.36451 22.9101C11.2934 22.9101 13.9946 20.9854 13.9946 17.6405C13.9757 12.0719 6.77895 13.0622 6.77895 10.9693Z" fill="white"/>
</g>
<defs>
<clipPath id="clip0_1_1006">
<rect width="70" height="28" fill="white"/>
</clipPath>
</defs>
</svg>
